<?xml version="1.0" encoding="UTF-8"?>
<svg id="Layer_1" data-name="Layer 1" xmlns="http://www.w3.org/2000/svg" viewBox="0 0 283.46 283.46" fill="#ffffff">
  <path d="M60.37,240.24c2.28.31,3.46-1.95,2.55-3.94-.36-.79-1.66-1.09-1.96-1.58-.75-1.25.74-13.47,1.04-15.9,7.88-64.47,40.72-119.25,91-159.21,21.3-16.92,44.48-31.66,70.1-41.21-10.71,9.66-20.09,20.61-27.37,33.11l-23.86,5.89h20.49c-7,14.41-12.45,29.48-17.92,44.53l-21.87,5.51h19.7l-4.74,11.61-38.99,9.27h34.67c-1.38,4.04-3.88,8.14-6.14,11.79-17.25,27.76-43.19,43.1-73.84,52.83,2.63-21.11,8.88-41.67,17.66-60.95,1.11-2.43,2.71-4.91,3.7-7.34.15-.35.7-1.13-.08-1.06-10.37,17.02-19.24,35.01-25.32,54.07-5.41,16.95-11.6,36.96-.27,52.88-7.54,5.33-11.09,14.68-14.5,22.98l-4.04,11.53v-24.83Z"/>
</svg>