<?xml version="1.0" encoding="UTF-8"?>
<svg id="Layer_1" data-name="Layer 1" xmlns="http://www.w3.org/2000/svg" viewBox="0 0 1054.82 352.49" fill="#ffffff">
  <path d="M551.73,191.43l-2.52.59c-16.96,1.5-33.94,2.8-50.95,3.27l-31.49.89c-3.12.07-6.25-.07-9.37-.01-21.86.44-44.06.21-65.93,0-8.79-.08-17.53,0-26.3-.28h-31.19v-4.46h217.75Z"/>
  <path d="M395.02,283.23h-91.05v-3.56c11.34-.07,22.36-4.42,26.88-15.46,2.78-6.77,2.52-14.07,3.14-21.22v-47.1s31.18,0,31.18,0l-.02,48.88c.69,7.59.57,15.76,4.53,22.51,5.32,9.06,15.75,12.34,25.79,12.39-.15,1.14.42,2.7-.45,3.56Z"/>
  <path d="M527.82,283.23h-91.06v-3.56c10.1-.11,20.16-3.36,25.41-12.48,4.42-7.66,3.91-16.56,4.61-25.09v-45.92s31.48-.89,31.48-.89v53.05c.64,9.82,1.62,18.28,9.5,24.95,5.79,4.88,12.87,5.96,20.23,6.51.44.3.53,2.98-.17,3.43Z"/>
  <path d="M551.44,177.76h-217.46v-4.15h31.19l101.6-.6,31.49.89c16.61.76,33.2,1.83,49.76,3.27l3.42.59Z"/>
  <path d="M358.28,129.14l7.18-11.68-.29,56.15h-31.19v-20.5c.81-.17,1.65-.62,2.35-1.07,8.8-5.59,15.85-14.6,21.95-22.9Z"/>
  <path d="M528.26,86.26v3.27c-8.94.5-17.47,2.24-23.46,9.37-5.33,6.34-5.93,14-6.55,21.96v53.04s-31.48-.89-31.48-.89v-45.91c-.71-9.65-.21-20.16-6.71-28.03-5.9-7.15-14.39-9.01-23.28-9.56l-.02-3.25h91.5Z"/>
  <path d="M281.69,198.85c1.72.23,2.61-1.47,1.93-2.97-.27-.59-1.25-.82-1.48-1.19-.57-.94.56-10.15.78-11.99,5.94-48.61,30.7-89.92,68.61-120.04,16.06-12.76,33.54-23.87,52.85-31.07-8.07,7.28-15.15,15.54-20.64,24.96l-17.99,4.44h15.45c-5.28,10.86-9.39,22.23-13.51,33.58l-16.49,4.15h14.86l-3.58,8.76-29.4,6.99h26.14c-1.04,3.05-2.92,6.14-4.63,8.89-13.01,20.93-32.56,32.49-55.68,39.84,1.98-15.91,6.7-31.42,13.31-45.95.83-1.84,2.04-3.7,2.79-5.53.11-.27.53-.85-.06-.8-7.82,12.84-14.51,26.4-19.09,40.77-4.08,12.78-8.75,27.87-.2,39.87-5.69,4.02-8.36,11.07-10.93,17.32l-3.05,8.69v-18.72Z"/>
  <path d="M144.52,173.91c-.04,1.05-.07,2.08-.08,3.11l-.44.74H57.4l3.41-.59c16.46-1.48,32.96-2.48,49.47-3.26h34.24Z"/>
  <path d="M280.5,149.24l-3.53-.03c-5.79-15.58-10.53-31.36-21.86-43.94-12.77-14.17-27.25-20.77-46.65-19.01-40.32,3.67-62.36,51.09-63.94,87.65h-34.24c2.89-32.8,18.99-63.28,48.52-79.09,23.49-12.57,51.04-16.68,77.14-10.79,9.31,2.1,17.98,6,27.04,8.32,7.01,1.8,9.71-.48,12.22-6.93l3.52-.05,1.78,63.87Z"/>
  <path d="M144.38,195.43h-34.98s-33.41-1.87-50.07-3.41l-2.53-.59h87.34c.07,1.33.14,2.67.24,4Z"/>
  <path d="M283.14,225.93c-1.45,13.23-5.24,27.05-13.51,37.66-22.03,28.28-70.4,28.91-101.5,17.78-35.95-12.85-55.65-45.1-58.44-82.36-.06-.82-.29-3.58-.29-3.58h34.98c.85,12.36,2.87,24.64,7.19,36.26,8.3,22.35,25.25,40.16,49.07,45.4,21.61,4.75,50.64.94,65.3-17.18,7.91-9.79,11.47-22.47,13.98-34.6l3.22.62Z"/>
  <g>
    <path d="M624.3,146.95c0,2.08.05,3.63.16,4.67.11,1.04.28,1.87.54,2.5.25.62.55,1.13.91,1.52s.86.75,1.53,1.08c.66.32,1.68.66,3.07,1.02v2.62h-22.44v-2.62c1.97-.5,3.34-1.06,4.13-1.66.78-.61,1.32-1.54,1.63-2.8.31-1.25.46-3.36.46-6.33v-22.48h-29.78v22.48c0,2.39.09,4.15.24,5.26.16,1.11.44,1.99.81,2.63.37.64.93,1.18,1.66,1.61.73.43,1.91.86,3.55,1.29v2.62h-22.54v-2.62c2.21-.57,3.69-1.21,4.44-1.9.75-.7,1.25-1.69,1.48-2.98.23-1.29.35-3.26.35-5.9v-46.42c0-2.47-.09-4.26-.27-5.39-.17-1.13-.47-2.01-.87-2.63-.42-.62-.96-1.13-1.64-1.5-.68-.38-1.84-.8-3.48-1.27v-2.62h22.54v2.62c-1.56.39-2.7.79-3.4,1.18-.69.39-1.25.89-1.66,1.48-.4.59-.71,1.48-.91,2.66-.2,1.18-.3,3.01-.3,5.48v19h29.78v-19c0-3.11-.15-5.24-.46-6.38s-.81-2.02-1.53-2.63c-.71-.6-2.12-1.19-4.23-1.77v-2.62h22.44v2.62c-2,.5-3.39,1.07-4.18,1.69s-1.32,1.56-1.61,2.82c-.28,1.25-.43,3.34-.43,6.27v46.42Z"/>
    <path d="M697.35,135.04c0,3.9-.36,7.27-1.07,10.09-.68,2.68-1.69,5.06-3.05,7.14-1.26,1.86-2.81,3.44-4.67,4.75-1.85,1.3-4.1,2.33-6.74,3.08-2.64.75-5.75,1.13-9.32,1.13-4.32,0-8.02-.48-11.1-1.45-3.09-.96-5.65-2.55-7.66-4.74-2.02-2.2-3.48-4.8-4.36-7.78-.9-2.98-1.34-6.79-1.34-11.4v-35.31c0-2.79-.09-4.68-.26-5.66-.19-.98-.45-1.76-.78-2.33-.34-.58-.83-1.07-1.48-1.49-.64-.4-1.84-.84-3.6-1.31v-2.62h22.5v2.62c-2,.5-3.4,1.07-4.19,1.69s-1.32,1.56-1.61,2.82c-.28,1.25-.43,3.34-.43,6.27v37.99c0,3.48.37,6.38,1.1,8.74.72,2.36,1.75,4.2,3.07,5.51,1.32,1.3,2.9,2.25,4.71,2.84,1.83.59,4.09.89,6.81.89,2.49,0,4.69-.44,6.59-1.31,1.89-.89,3.46-2.21,4.73-4,1.27-1.79,2.13-3.99,2.6-6.6.46-2.61.7-6.12.7-10.51v-33.54c0-3.11-.15-5.24-.46-6.38s-.81-2.02-1.5-2.63c-.7-.6-2.14-1.19-4.32-1.77v-2.62h21.37v2.62c-2.07.54-3.49,1.13-4.25,1.77-.77.64-1.3,1.57-1.58,2.79-.28,1.22-.43,3.3-.43,6.23v34.51Z"/>
    <path d="M730.88,120.23h1.61c1.36,0,2.6-.22,3.73-.64,1.11-.43,2.38-1.24,3.77-2.42,1.39-1.18,3.52-3.38,6.37-6.6,3.43-3.83,5.77-6.6,7.02-8.32,1.57-2.03,2.62-3.75,3.16-5.15.43-1.04.64-2.04.64-3.01,0-1.43-.42-2.48-1.24-3.14-.82-.67-1.95-1.07-3.38-1.21v-2.62h23.36v2.62c-1.15.25-2.27.69-3.38,1.32-1.1.62-2.24,1.48-3.4,2.57-1.16,1.09-2.86,2.9-5.12,5.4l-17.99,20.27,19.49,28.4c2.08,3.01,3.69,5.1,4.87,6.31,1.18,1.19,2.31,2.08,3.38,2.62,1.07.56,2.21.93,3.42,1.1v2.63h-23.61v-2.63c1.31-.11,2.28-.36,2.89-.75.61-.39.91-.98.91-1.77,0-.64-.2-1.42-.61-2.33-.42-.92-1.06-2.01-1.96-3.3l-12.47-18.62c-1.46-2.22-2.54-3.68-3.21-4.4-.69-.71-1.42-1.24-2.2-1.57-.79-.34-1.85-.51-3.16-.51h-2.84v22.48c0,2.39.08,4.15.24,5.26.16,1.11.43,1.99.8,2.63.38.64.93,1.18,1.66,1.61.73.43,1.92.86,3.56,1.29v2.63h-22.55v-2.63c2.22-.57,3.69-1.21,4.45-1.9.75-.7,1.24-1.69,1.48-2.98.23-1.29.35-3.26.35-5.9v-46.42c0-2.47-.1-4.26-.27-5.39s-.47-2.01-.89-2.63c-.4-.62-.95-1.13-1.63-1.5-.68-.38-1.84-.8-3.49-1.27v-2.62h22.55v2.62c-1.57.39-2.7.79-3.4,1.18-.7.39-1.25.89-1.66,1.48-.4.59-.71,1.48-.91,2.66-.2,1.18-.3,3.01-.3,5.48l-.05,19.7Z"/>
    <path d="M835.85,135.04c0,3.9-.36,7.27-1.07,10.09-.68,2.68-1.69,5.06-3.05,7.14-1.26,1.86-2.81,3.44-4.67,4.75-1.85,1.3-4.1,2.33-6.74,3.08-2.64.75-5.75,1.13-9.32,1.13-4.32,0-8.02-.48-11.1-1.45-3.09-.96-5.65-2.55-7.66-4.74-2.02-2.2-3.48-4.8-4.36-7.78-.9-2.98-1.34-6.79-1.34-11.4v-35.31c0-2.79-.09-4.68-.26-5.66-.19-.98-.45-1.76-.78-2.33-.35-.58-.83-1.07-1.48-1.49-.64-.4-1.84-.84-3.6-1.31v-2.62h22.5v2.62c-2,.5-3.4,1.07-4.19,1.69s-1.32,1.56-1.61,2.82c-.28,1.25-.43,3.34-.43,6.27v37.99c0,3.48.37,6.38,1.1,8.74.72,2.36,1.75,4.2,3.07,5.51,1.32,1.3,2.9,2.25,4.71,2.84,1.83.59,4.09.89,6.81.89,2.49,0,4.69-.44,6.59-1.31,1.89-.89,3.46-2.21,4.73-4,1.27-1.79,2.13-3.99,2.6-6.6.46-2.61.7-6.12.7-10.51v-33.54c0-3.11-.15-5.24-.46-6.38s-.81-2.02-1.5-2.63c-.7-.6-2.14-1.19-4.32-1.77v-2.62h21.37v2.62c-2.07.54-3.49,1.13-4.25,1.77-.77.64-1.3,1.57-1.58,2.79-.28,1.22-.43,3.3-.43,6.23v34.51Z"/>
    <path d="M869.38,120.23h1.61c1.36,0,2.6-.22,3.73-.64,1.11-.43,2.38-1.24,3.77-2.42,1.39-1.18,3.52-3.38,6.37-6.6,3.43-3.83,5.77-6.6,7.02-8.32,1.57-2.03,2.62-3.75,3.16-5.15.43-1.04.64-2.04.64-3.01,0-1.43-.42-2.48-1.24-3.14-.82-.67-1.95-1.07-3.38-1.21v-2.62h23.36v2.62c-1.15.25-2.27.69-3.38,1.32-1.1.62-2.24,1.48-3.4,2.57-1.16,1.09-2.86,2.9-5.12,5.4l-17.99,20.27,19.49,28.4c2.08,3.01,3.69,5.1,4.87,6.31,1.18,1.19,2.31,2.08,3.38,2.62,1.07.56,2.21.93,3.42,1.1v2.63h-23.61v-2.63c1.31-.11,2.28-.36,2.89-.75.61-.39.91-.98.91-1.77,0-.64-.2-1.42-.61-2.33-.42-.92-1.06-2.01-1.96-3.3l-12.47-18.62c-1.46-2.22-2.54-3.68-3.21-4.4-.69-.71-1.42-1.24-2.2-1.57-.79-.34-1.85-.51-3.16-.51h-2.84v22.48c0,2.39.08,4.15.24,5.26.16,1.11.43,1.99.8,2.63.38.64.93,1.18,1.66,1.61.73.43,1.92.86,3.56,1.29v2.63h-22.55v-2.63c2.22-.57,3.69-1.21,4.45-1.9.75-.7,1.24-1.69,1.48-2.98.23-1.29.35-3.26.35-5.9v-46.42c0-2.47-.1-4.26-.27-5.39s-.47-2.01-.89-2.63c-.4-.62-.95-1.13-1.63-1.5-.68-.38-1.84-.8-3.49-1.27v-2.62h22.55v2.62c-1.57.39-2.7.79-3.4,1.18-.7.39-1.25.89-1.66,1.48-.4.59-.71,1.48-.91,2.66-.2,1.18-.3,3.01-.3,5.48l-.05,19.7Z"/>
  </g>
  <g>
    <path d="M568.23,276.32v-1.34c.84-.22,1.44-.43,1.8-.63.36-.2.65-.46.85-.76.2-.31.35-.76.43-1.34.09-.59.14-1.51.14-2.76v-23.68c0-1.28-.04-2.2-.14-2.78-.09-.57-.24-1.02-.45-1.33-.21-.31-.48-.56-.83-.75-.35-.2-.95-.41-1.8-.65v-1.34h11.96c3.44,0,6.26.38,8.45,1.14,2.2.75,4.05,1.87,5.56,3.35,1.51,1.48,2.64,3.32,3.38,5.51.75,2.2,1.12,4.82,1.12,7.87s-.35,5.8-1.05,8.14c-.7,2.35-1.72,4.31-3.07,5.9-1.17,1.38-2.59,2.53-4.29,3.42-1.4.73-3.02,1.25-4.86,1.56-1.84.31-4.28.47-7.32.47h-9.88ZM576.56,273.78c.73.07,1.8.11,3.22.11,1.53,0,2.9-.13,4.1-.38,1.2-.26,2.3-.66,3.28-1.2.99-.55,1.87-1.31,2.65-2.29.78-.98,1.42-2.1,1.91-3.37.49-1.27.85-2.68,1.08-4.23.23-1.56.34-3.25.34-5.1,0-3.7-.53-6.75-1.59-9.13-1.06-2.38-2.57-4.12-4.51-5.21-1.94-1.1-4.25-1.64-6.95-1.64-1.24,0-2.41.03-3.52.11v32.32Z"/>
    <path d="M622.07,276.32v-1.34c.91-.18,1.59-.38,2.03-.6.45-.22.77-.52.99-.92.22-.39.33-.91.33-1.57,0-.62-.07-1.29-.22-2.01-.14-.72-.36-1.53-.63-2.42l-1.01-3.53h-12.73l-.93,2.68c-.47,1.35-.78,2.37-.93,3.07-.15.7-.22,1.32-.22,1.89,0,1.09.28,1.9.84,2.41.55.51,1.4.85,2.55,1.01v1.34h-11.66v-1.34c1.01-.17,1.91-.76,2.66-1.78.76-1.03,1.49-2.49,2.2-4.38l11.39-30.3h4.31l9.29,30.52c.44,1.43.83,2.51,1.17,3.26.33.75.74,1.34,1.22,1.76.47.42,1.12.73,1.93.93v1.34h-12.59ZM611.58,261.54h11.42l-5.19-17.65-6.23,17.65Z"/>
    <path d="M660.42,261.51c.65,1.09,1.2,2.05,1.65,2.87.45.83.91,1.74,1.38,2.76h.36c-.09-1.11-.18-3.32-.25-6.63-.07-3.31-.11-6.3-.11-8.96v-5.75c0-1.26-.04-2.18-.11-2.76s-.2-1.03-.4-1.34c-.19-.31-.46-.56-.79-.75-.33-.19-.93-.41-1.76-.64v-1.34h9.83v1.34c-.82.22-1.4.42-1.73.6-.34.18-.61.42-.82.71-.21.29-.37.73-.48,1.31-.11.59-.16,1.54-.16,2.88v30.68h-3.42l-15.21-25.56c-.95-1.59-1.62-2.75-2.02-3.48-.4-.72-.77-1.45-1.12-2.16h-.46c.13,1.4.22,3.94.27,7.62.06,3.67.08,7.34.08,10.99v5.59c0,1.22.04,2.11.12,2.68.08.56.22,1.01.41,1.34.2.33.47.61.85.83.37.22.98.43,1.82.66v1.34h-9.97v-1.34c1.13-.3,1.89-.62,2.27-.98.38-.35.64-.86.75-1.52s.18-1.66.18-3.01v-23.68c0-1.26-.04-2.18-.14-2.75-.09-.57-.24-1.02-.45-1.34-.21-.32-.49-.57-.84-.77-.35-.19-.94-.41-1.78-.64v-1.34h8.55l13.5,22.55Z"/>
    <path d="M684.89,269.48c0,1.22.04,2.12.12,2.68.08.57.22,1.01.41,1.34.19.33.47.6.84.82.37.22.98.44,1.82.66v1.34h-11.52v-1.34c1.13-.29,1.88-.62,2.26-.97.38-.36.64-.86.75-1.52.12-.66.18-1.66.18-3.01v-23.68c0-1.26-.04-2.17-.14-2.75-.09-.57-.24-1.03-.45-1.34-.21-.32-.49-.57-.83-.76-.35-.2-.94-.41-1.77-.65v-1.34h11.52v1.34c-.8.2-1.38.4-1.73.6s-.64.45-.85.75c-.21.3-.36.75-.46,1.35-.1.6-.15,1.53-.15,2.79v23.68Z"/>
    <path d="M697.18,267.81c.36,1.59.85,2.85,1.48,3.79.62.94,1.42,1.63,2.4,2.08.98.45,2.23.67,3.74.67,2.19,0,3.84-.55,4.97-1.67,1.13-1.11,1.69-2.74,1.69-4.87,0-1.37-.24-2.52-.71-3.45-.47-.93-1.24-1.81-2.32-2.63-1.08-.82-2.71-1.78-4.92-2.87-2.13-1.06-3.81-2.1-5.06-3.11-1.24-1.01-2.16-2.11-2.77-3.29-.61-1.19-.91-2.48-.91-3.89,0-2.04.48-3.81,1.43-5.32.96-1.51,2.36-2.67,4.21-3.49,1.85-.83,3.96-1.23,6.35-1.23,1.38,0,2.74.07,4.06.22,1.32.14,2.97.47,4.96.99v7.39h-2.7c-.42-1.61-.95-2.85-1.58-3.75-.64-.9-1.39-1.52-2.24-1.88-.86-.36-1.97-.53-3.33-.53-1.18,0-2.25.22-3.18.65-.94.44-1.68,1.1-2.22,1.98-.55.89-.82,1.94-.82,3.16,0,1.3.23,2.39.7,3.29.46.89,1.19,1.72,2.17,2.49.99.77,2.44,1.63,4.37,2.58,2.34,1.17,4.14,2.25,5.42,3.26,1.28,1,2.29,2.15,3,3.43.72,1.29,1.08,2.79,1.08,4.5,0,2.54-.56,4.63-1.68,6.27-1.12,1.64-2.78,2.8-4.98,3.48l-3.31,2.46c.18.4.34.88.46,1.45.13.56.2,1.1.2,1.62,0,1.88-.74,3.39-2.23,4.53-1.48,1.14-3.61,1.8-6.38,1.98l-.36-2.02c1.19-.14,2.14-.42,2.84-.82.71-.41,1.2-.88,1.48-1.41.27-.54.41-1.19.41-1.96,0-.47-.06-.95-.16-1.43v-1.09l3.87-2.71c-.98.07-1.73.11-2.26.11-2.86,0-6.15-.48-9.89-1.45v-7.5h2.73Z"/>
    <path d="M761.46,240.3c-.8.2-1.38.4-1.73.6-.36.2-.64.45-.85.75-.21.3-.37.75-.47,1.35-.1.6-.14,1.53-.14,2.79v23.68c0,1.22.04,2.12.12,2.68.08.56.22,1.01.41,1.34.19.32.47.6.85.82.37.22.98.43,1.82.66v1.34h-11.39v-1.34c1.04-.26,1.76-.55,2.16-.88.4-.33.67-.81.82-1.45.14-.64.22-1.69.22-3.17v-10.49c0-2.75.04-5.54.12-8.36.08-2.82.18-4.74.28-5.79h-.46l-10.81,27.13h-3.14l-10.05-27.56h-.46c.09,1.11.17,3.13.26,6.05.08,2.92.12,5.92.12,9v10.02c0,1.22.04,2.12.12,2.68.08.56.22,1.01.41,1.34.19.32.47.6.85.82.37.22.98.43,1.81.66v1.34h-9.97v-1.34c1.13-.3,1.88-.62,2.27-.98.38-.35.63-.86.75-1.52.12-.66.18-1.66.18-3.01v-23.68c0-1.26-.04-2.17-.13-2.75-.09-.57-.25-1.02-.45-1.34-.21-.32-.48-.57-.84-.77-.35-.19-.94-.4-1.77-.64v-1.34h9.75l9.59,26.64,10.55-26.64h9.23v1.34Z"/>
    <path d="M786.51,276.32v-1.34c.91-.18,1.59-.38,2.03-.6.45-.22.77-.52.99-.92.22-.39.33-.91.33-1.57,0-.62-.07-1.29-.22-2.01-.14-.72-.36-1.53-.62-2.42l-1.01-3.53h-12.73l-.93,2.68c-.47,1.35-.78,2.37-.93,3.07-.14.7-.22,1.32-.22,1.89,0,1.09.28,1.9.84,2.41.55.51,1.4.85,2.55,1.01v1.34h-11.66v-1.34c1.01-.17,1.91-.76,2.66-1.78.76-1.03,1.49-2.49,2.2-4.38l11.39-30.3h4.31l9.29,30.52c.44,1.43.83,2.51,1.17,3.26.33.75.74,1.34,1.22,1.76.47.42,1.12.73,1.93.93v1.34h-12.59ZM776.02,261.54h11.42l-5.19-17.65-6.23,17.65Z"/>
    <path d="M824.86,261.51c.65,1.09,1.2,2.05,1.65,2.87.45.83.91,1.74,1.38,2.76h.36c-.09-1.11-.18-3.32-.25-6.63-.07-3.31-.11-6.3-.11-8.96v-5.75c0-1.26-.04-2.18-.11-2.76s-.2-1.03-.4-1.34c-.19-.31-.46-.56-.79-.75-.33-.19-.93-.41-1.76-.64v-1.34h9.83v1.34c-.82.22-1.4.42-1.73.6-.34.18-.61.42-.82.71-.21.29-.37.73-.48,1.31-.11.59-.16,1.54-.16,2.88v30.68h-3.42l-15.21-25.56c-.95-1.59-1.62-2.75-2.02-3.48-.4-.72-.77-1.45-1.12-2.16h-.46c.13,1.4.22,3.94.27,7.62.06,3.67.08,7.34.08,10.99v5.59c0,1.22.04,2.11.12,2.68.08.56.22,1.01.41,1.34.2.33.47.61.85.83.37.22.98.43,1.82.66v1.34h-9.97v-1.34c1.13-.3,1.88-.62,2.26-.98.38-.35.64-.86.75-1.52s.18-1.66.18-3.01v-23.68c0-1.26-.04-2.18-.14-2.75-.09-.57-.24-1.02-.45-1.34-.21-.32-.49-.57-.84-.77-.35-.19-.94-.41-1.77-.64v-1.34h8.55l13.5,22.55Z"/>
    <path d="M849.3,273.8h7.16c.78,0,1.44-.04,1.97-.14.52-.09.98-.23,1.35-.42.37-.19.71-.45,1.01-.79.3-.34.59-.78.86-1.33.27-.55.53-1.24.77-2.07.25-.83.55-2.07.92-3.73h2.75l-.54,11h-24.56v-1.34c1.13-.29,1.88-.61,2.27-.97s.64-.86.75-1.52c.12-.66.18-1.66.18-3.01v-23.68c0-1.26-.04-2.17-.14-2.75-.09-.57-.24-1.02-.45-1.34-.21-.32-.49-.57-.83-.76-.35-.2-.94-.41-1.78-.65v-1.34h11.5v1.34c-.8.22-1.37.42-1.71.59-.33.17-.61.41-.83.7-.22.3-.38.74-.5,1.34-.11.6-.16,1.56-.16,2.87v28Z"/>
    <path d="M879.35,269.48c0,1.22.04,2.12.12,2.68.08.57.22,1.01.41,1.34.19.33.47.6.84.82.37.22.98.44,1.82.66v1.34h-11.52v-1.34c1.13-.29,1.88-.62,2.26-.97.38-.36.64-.86.75-1.52.12-.66.18-1.66.18-3.01v-23.68c0-1.26-.04-2.17-.14-2.75-.09-.57-.24-1.03-.45-1.34-.21-.32-.49-.57-.83-.76-.35-.2-.94-.41-1.77-.65v-1.34h11.52v1.34c-.8.2-1.38.4-1.73.6s-.64.45-.85.75c-.21.3-.36.75-.46,1.35-.1.6-.15,1.53-.15,2.79v23.68Z"/>
    <path d="M897.44,255.85h.82c.69,0,1.33-.11,1.9-.33s1.22-.63,1.92-1.23c.71-.6,1.8-1.72,3.25-3.37,1.75-1.95,2.94-3.37,3.58-4.24.8-1.04,1.34-1.91,1.61-2.63.22-.53.33-1.04.33-1.53,0-.73-.21-1.27-.63-1.6-.42-.34-.99-.55-1.72-.62v-1.34h11.91v1.34c-.59.13-1.15.35-1.72.67-.56.32-1.14.75-1.73,1.31-.59.56-1.46,1.48-2.61,2.75l-9.18,10.34,9.94,14.48c1.06,1.53,1.89,2.6,2.49,3.22.6.61,1.18,1.06,1.72,1.34.55.28,1.13.47,1.75.56v1.34h-12.05v-1.34c.67-.06,1.17-.18,1.47-.38.31-.2.47-.5.47-.9,0-.33-.11-.72-.32-1.19-.21-.47-.54-1.03-.99-1.68l-6.37-9.5c-.75-1.13-1.29-1.88-1.64-2.25-.35-.36-.72-.63-1.12-.8-.4-.17-.94-.26-1.61-.26h-1.45v11.47c0,1.22.04,2.12.12,2.68.08.57.22,1.01.41,1.34.2.33.48.6.85.82.37.22.98.44,1.82.66v1.34h-11.5v-1.34c1.13-.29,1.88-.62,2.27-.97.38-.36.64-.86.75-1.52s.18-1.66.18-3.01v-23.68c0-1.26-.04-2.17-.14-2.75-.09-.57-.24-1.03-.45-1.34-.21-.32-.48-.57-.83-.76-.35-.2-.94-.41-1.78-.65v-1.34h11.5v1.34c-.8.2-1.38.4-1.73.6-.36.2-.64.45-.85.75-.21.3-.36.75-.46,1.35-.1.6-.15,1.53-.15,2.79l-.03,10.05Z"/>
  </g>
  <line x1="498.77" y1="195.28" x2="498.26" y2="195.29"/>
  <path d="M598.72,214.48c-2.58,2.07-5.07,3.56-7.48,4.44-2.41.89-5.09,1.33-8.01,1.33s-5.71-.53-7.98-1.58c-2.27-1.05-4.01-2.54-5.21-4.46-1.2-1.92-1.8-4.18-1.8-6.79,0-2.07.39-3.95,1.15-5.63.77-1.68,2.01-3.32,3.72-4.91,1.7-1.6,4.02-3.24,6.95-4.94-1.85-2.43-3.15-4.63-3.94-6.62-.78-1.99-1.17-4.02-1.17-6.09,0-2.36.61-4.44,1.82-6.24,1.21-1.81,2.93-3.22,5.16-4.23,2.24-1.01,4.72-1.52,7.44-1.52,1.69,0,3.28.17,4.75.51,1.48.35,2.77.9,3.86,1.65,1.1.76,1.96,1.75,2.6,2.96.63,1.21.94,2.69.94,4.44,0,.83-.09,1.64-.26,2.41-.18.77-.44,1.51-.8,2.2s-.81,1.41-1.38,2.14c-.56.73-1.35,1.53-2.35,2.4-1,.86-2.26,1.77-3.8,2.73-1.54.97-3.25,1.97-5.12,3.04,1.27,1.69,3.16,4.05,5.68,7.06,2.53,3.01,5.06,5.92,7.61,8.73,1.69-1.75,2.95-3.49,3.77-5.23.82-1.75,1.23-3.54,1.23-5.39,0-1.32-.3-2.3-.91-2.96-.6-.66-1.58-1.07-2.91-1.21v-1.86h10.8v1.86c0,.35-.13,1.1-.38,2.23-.15.73-.34,1.47-.57,2.2-.22.71-.49,1.41-.8,2.13-.3.71-.64,1.41-1.02,2.09-.38.73-.81,1.45-1.29,2.16-.48.71-1,1.41-1.55,2.13-.58.73-1.22,1.47-1.92,2.2-.69.73-1.41,1.46-2.2,2.19,1.24,1.45,2.32,2.57,3.24,3.38.93.81,1.75,1.38,2.47,1.73.72.34,1.47.51,2.25.51s1.48-.18,2.18-.53c.7-.36,1.62-1.02,2.78-2.01l1.75,2.16c-1.51,1.57-3.1,2.79-4.75,3.66-1.65.87-3.24,1.31-4.75,1.31-1.24,0-2.32-.16-3.24-.49-.92-.32-1.86-.87-2.82-1.63-.96-.76-2.19-1.97-3.71-3.64M582.13,194.67c-2.47,1.62-4.27,3.32-5.41,5.1-1.14,1.79-1.71,3.82-1.71,6.09,0,2.1.43,3.92,1.29,5.45.86,1.53,2.03,2.67,3.52,3.43,1.49.76,3.17,1.14,5.04,1.14,2.19,0,4.18-.29,5.94-.87,1.77-.58,3.66-1.6,5.65-3.07-.81-.91-1.97-2.26-3.49-4.03l-6.25-7.47c-1.04-1.26-1.96-2.4-2.76-3.42l-1.82-2.35ZM585.69,189.13c3.23-1.72,5.67-3.56,7.33-5.54,1.65-1.97,2.48-4.03,2.48-6.18,0-1.45-.27-2.69-.81-3.74-.55-1.05-1.32-1.85-2.33-2.39-1-.54-2.16-.82-3.44-.82-1.49,0-2.81.32-3.96.97-1.14.64-2.04,1.58-2.68,2.81-.65,1.23-.97,2.67-.97,4.34,0,1.55.32,3.12.97,4.75.64,1.62,1.79,3.56,3.42,5.8"/>
</svg>